<?xml version="1.0" encoding="UTF-8" standalone="no"?>
<svg
   id="svg2"
   viewBox="0 0 750 750"
   version="1.0"
   y="0"
   x="0"
   sodipodi:docname="logo.svg"
   inkscape:version="1.2.1 (9c6d41e410, 2022-07-14)"
   xmlns:inkscape="http://www.inkscape.org/namespaces/inkscape"
   xmlns:sodipodi="http://sodipodi.sourceforge.net/DTD/sodipodi-0.dtd"
   xmlns:xlink="http://www.w3.org/1999/xlink"
   xmlns="http://www.w3.org/2000/svg"
   xmlns:svg="http://www.w3.org/2000/svg"
   xmlns:rdf="http://www.w3.org/1999/02/22-rdf-syntax-ns#"
   xmlns:cc="http://creativecommons.org/ns#"
   xmlns:dc="http://purl.org/dc/elements/1.1/">
  <sodipodi:namedview
     id="namedview61"
     pagecolor="#ffffff"
     bordercolor="#000000"
     borderopacity="0.25"
     inkscape:showpageshadow="2"
     inkscape:pageopacity="0.0"
     inkscape:pagecheckerboard="0"
     inkscape:deskcolor="#d1d1d1"
     showgrid="false"
     inkscape:zoom="0.65866667"
     inkscape:cx="346.15385"
     inkscape:cy="375"
     inkscape:window-width="1366"
     inkscape:window-height="697"
     inkscape:window-x="-8"
     inkscape:window-y="-8"
     inkscape:window-maximized="1"
     inkscape:current-layer="layer1" />
  <defs
     id="defs3">
    <linearGradient
       id="linearGradient2064">
      <stop
         id="stop2066"
         offset="0" />
      <stop
         id="stop2068"
         stop-opacity="0"
         offset="1" />
    </linearGradient>
    <linearGradient
       id="linearGradient2070"
       y2="437.67"
       xlink:href="#linearGradient2064"
       gradientUnits="userSpaceOnUse"
       y1="398.23"
       gradientTransform="matrix(1.1944,0,0,1.1551,18.814,-121.62)"
       x2="248.87"
       x1="224.24" />
    <linearGradient
       id="linearGradient2074"
       y2="437.67"
       xlink:href="#linearGradient2064"
       gradientUnits="userSpaceOnUse"
       y1="398.23"
       gradientTransform="matrix(-1.5607,-0.93911,-1.1754,0.56654,1554.2,457.49)"
       x2="248.87"
       x1="224.24" />
    <linearGradient
       id="linearGradient2078"
       y2="437.67"
       xlink:href="#linearGradient2064"
       gradientUnits="userSpaceOnUse"
       y1="398.23"
       gradientTransform="matrix(1.6784,0.80542,1.0868,-0.75835,-804.44,465.53)"
       x2="248.87"
       x1="224.24" />
    <linearGradient
       id="linearGradient2082"
       y2="437.67"
       xlink:href="#linearGradient2064"
       gradientUnits="userSpaceOnUse"
       y1="398.23"
       gradientTransform="matrix(-0.67441,1.7352,-1.3116,0.18944,1142.2,-268.06)"
       x2="248.87"
       x1="224.24" />
  </defs>
  <g
     id="layer1"
     transform="translate(9.1093117,-1.5182186)">
    <path
       id="path2086"
       stroke-linejoin="round"
       d="m 223.36,86.567 c -101.93,0 -184.66,82.733 -184.66,184.66 -0.003,27.18 6.037,52.87 16.599,76.12 15.637,50.28 84.541,145.05 321.07,321.13 v 0.07 c 0.61,0.54 1.07,0.95 1.68,1.48 0.06,-0.04 0.09,-0.1 0.15,-0.14 0.07,0.05 0.13,0.09 0.21,0.14 0.61,-0.53 1.07,-0.94 1.68,-1.48 v -0.07 c 236.53,-176.08 305.43,-270.85 321.07,-321.13 10.56,-23.25 16.6,-48.94 16.6,-76.12 0,-101.93 -82.73,-184.66 -184.66,-184.66 -65.12,-0.003 -122.04,34 -154.9,84.98 -32.87,-50.96 -89.73,-84.983 -154.84,-84.983 z"
       stroke-opacity="0.22162"
       fill-opacity="0.048649"
       stroke="#ff0000"
       stroke-linecap="round"
       stroke-width="10.703"
       fill="#ff0000"
       style="fill:#ffff00;stroke:#ff2bda;stroke-opacity:0.22162002" />
    <path
       id="path2104"
       stroke-linejoin="round"
       d="m 420,339.51 a 174.29,90 0 1 1 -348.57,0 174.29,90 0 1 1 348.57,0 z"
       stroke-opacity="0.29189"
       transform="matrix(1.1812,-0.31815,0.31815,1.1812,-138.01,6.2223)"
       stroke="#000000"
       stroke-linecap="round"
       stroke-width="47.006"
       fill="none" />
    <path
       id="path2112"
       stroke-linejoin="round"
       d="m 420,339.51 a 174.29,90 0 1 1 -348.57,0 174.29,90 0 1 1 348.57,0 z"
       stroke-opacity="0.21622"
       transform="matrix(1.1296,0.29853,-0.2995,1.1259,318.53,-49.652)"
       stroke="#000000"
       stroke-linecap="round"
       stroke-width="48.213"
       fill="none" />
    <path
       id="path1291"
       stroke-linejoin="round"
       d="m 420,339.51 a 174.29,90 0 1 1 -348.57,0 174.29,90 0 1 1 348.57,0 z"
       transform="matrix(1.1812,-0.31815,0.31815,1.1812,-138.01,6.2223)"
       stroke="#fff200"
       stroke-linecap="round"
       stroke-width="43.55"
       fill="none"
       style="stroke:#ffe974;stroke-opacity:0.96078432" />
    <path
       id="path2080"
       d="m 440.28,292.31 c 0,0 3.71,-46.15 -9.17,-64.24 -12.88,-18.1 -4.93,-9.27 -21.08,-22.62 -16.15,-13.34 -3.46,41.84 -3.46,41.84 0,0 22.18,12.48 25.27,19.16 3.09,6.68 8.44,25.86 8.44,25.86 z"
       fill="url(#linearGradient2082)"
       fill-rule="evenodd"
       style="fill:url(#linearGradient2082)" />
    <path
       id="path2052"
       stroke-linejoin="round"
       d="m 420,339.51 a 174.29,90 0 1 1 -348.57,0 174.29,90 0 1 1 348.57,0 z"
       transform="matrix(1.1296,0.29853,-0.2995,1.1259,318.53,-49.652)"
       stroke="#fff200"
       stroke-linecap="round"
       stroke-width="43.55"
       fill="none"
       style="stroke:#ffe974;stroke-opacity:0.96078432" />
    <path
       id="path2056"
       d="m 432.04,317.96 c 0,0 12.62,-2.8 28.04,0 15.42,2.81 28.03,5.61 28.03,5.61 0,0 -35.04,-7.01 -51.86,2.81 -16.82,9.81 -23.83,18.22 -23.83,18.22 z"
       fill-opacity="0.6"
       fill-rule="evenodd" />
    <path
       id="path2058"
       d="m 315.7,455.34 c 0,0 12.62,-2.81 28.03,-8.41 15.42,-5.61 28.04,-14.02 28.04,-14.02 0,0 -26.63,23.83 -35.04,26.63 -8.41,2.8 -21.03,-4.2 -21.03,-4.2 z"
       fill-opacity="0.27027"
       fill-rule="evenodd" />
    <path
       id="path2060"
       d="m 353.55,330.11 c 0,0 -33.27,13.27 -47.82,31.85 -14.56,18.58 -7.28,7.96 -18.72,27.87 -11.43,19.91 30.15,-11.95 30.15,-11.95 0,0 11.44,-25.21 16.63,-30.52 5.2,-5.31 19.76,-17.25 19.76,-17.25 z"
       fill="url(#linearGradient2070)"
       fill-rule="evenodd"
       style="fill:url(#linearGradient2070)" />
    <path
       id="path2072"
       d="m 657.16,415.85 c 0,0 29.97,32.66 30.08,53.22 0.11,20.56 1.4,9.63 -3.91,28.38 -5.31,18.76 -27.24,-29.56 -27.24,-29.56 0,0 10.72,-21.36 9.33,-28.05 -1.39,-6.69 -8.26,-23.99 -8.26,-23.99 z"
       fill="url(#linearGradient2074)"
       fill-rule="evenodd"
       style="fill:url(#linearGradient2074)" />
    <path
       id="path2076"
       d="m 90.934,394.7 c 0,0 -34.258,-31.14 -37.227,-53.16 -2.97,-22.01 -2.734,-10.13 -0.072,-30.91 2.661,-20.78 31.124,28.17 31.124,28.17 0,0 -7.656,24.26 -5.347,31.25 2.31,6.99 11.522,24.65 11.522,24.65 z"
       fill="url(#linearGradient2078)"
       fill-rule="evenodd"
       style="fill:url(#linearGradient2078)" />
    <path
       id="path2084"
       d="m 397.06,309.47 c -0.97,0.48 -27.09,-46.99 -28.12,-46.73 -1.04,0.26 -4.46,50.52 -5.54,50.58 -1.08,0.07 -1.36,-51.68 -2.43,-51.97 -1.07,-0.3 -31.26,47.62 -32.17,47.05 -0.91,-0.56 25.27,-50.34 24.5,-51.08 -0.78,-0.74 -44.04,20.99 -44.59,20.04 -0.56,-0.95 46.82,-23.88 46.55,-24.92 -0.26,-1.03 -59.54,-7.59 -59.59,-8.66 -0.06,-1.07 56.76,4.77 57.13,3.74 0.37,-1.02 -44.71,-32.83 -44.07,-33.73 0.64,-0.9 44.52,25.84 45.39,25.12 0.86,-0.72 -19.76,-49 -18.82,-49.59 0.95,-0.59 26.07,47.57 27.14,47.44 1.07,-0.13 0.38,-56.42 1.5,-56.49 1.13,-0.07 4.55,59.98 5.61,60.24 1.05,0.25 31.07,-51.88 32,-51.34 0.94,0.54 -30.19,48.04 -29.5,48.91 0.69,0.88 49.23,-24.49 49.75,-23.5 0.52,0.99 -42.8,29.83 -42.45,30.85 0.35,1.03 52.48,3.33 52.33,4.38 -0.15,1.06 -53.74,2.63 -53.97,3.73 -0.24,1.11 44.67,33.86 44.07,34.74 -0.61,0.88 -50.13,-26.17 -50.89,-25.41 -0.77,0.77 27.13,46.12 26.17,46.6 z"
       fill="#ffffce"
       transform="matrix(1.2233,0,0,1.2233,35.775,-41.265)" />
    <path
       id="path2114"
       d="m 279.89,408.69 c 0,0 13.87,-2.48 24.27,-5.95 10.4,-3.46 25.76,-9.9 25.76,-9.9 0,0 0.49,-3.47 -8.42,-1.99 -8.92,1.49 -41.61,17.84 -41.61,17.84 z"
       fill-opacity="0.27027"
       fill-rule="evenodd" />
  </g>
  <metadata
     id="metadata58">
    <rdf:RDF>
      <cc:Work>
        <dc:format>image/svg+xml</dc:format>
        <dc:type
           rdf:resource="http://purl.org/dc/dcmitype/StillImage" />
        <cc:license
           rdf:resource="http://creativecommons.org/licenses/publicdomain/" />
        <dc:publisher>
          <cc:Agent
             rdf:about="http://openclipart.org/">
            <dc:title>Openclipart</dc:title>
          </cc:Agent>
        </dc:publisher>
        <dc:date>2005-10-11T20:07:45</dc:date>
        <dc:description>Wedding Rings s </dc:description>
        <dc:source>https://openclipart.org/detail/182971/wedding-rings-1-by-Jarno-182971</dc:source>
        <dc:creator>
          <cc:Agent>
            <dc:title>Jarno</dc:title>
          </cc:Agent>
        </dc:creator>
        <dc:subject>
          <rdf:Bag>
            <rdf:li>ring</rdf:li>
            <rdf:li>rings</rdf:li>
            <rdf:li>upload2openclipart</rdf:li>
            <rdf:li>wedding</rdf:li>
          </rdf:Bag>
        </dc:subject>
      </cc:Work>
      <cc:License
         rdf:about="http://creativecommons.org/licenses/publicdomain/">
        <cc:permits
           rdf:resource="http://creativecommons.org/ns#Reproduction" />
        <cc:permits
           rdf:resource="http://creativecommons.org/ns#Distribution" />
        <cc:permits
           rdf:resource="http://creativecommons.org/ns#DerivativeWorks" />
      </cc:License>
    </rdf:RDF>
  </metadata>
</svg>
